<svg width="95" height="26" viewBox="0 0 95 26" fill="none" xmlns="http://www.w3.org/2000/svg">
<g clip-path="url(#clip0_1_650)">
<path d="M0.328613 25.5V0.5H6.81921L13.2341 10.1074L19.6897 0.5H26.1424V25.5H19.6518V10.248L15.1189 16.9629H11.5328L6.85417 10.248V25.4971H0.328613V25.5Z" fill="white"/>
<path d="M28.8255 25.5V0.5H41.1891C45.8298 0.5 49.0925 2.71534 49.0925 6.82174C49.0925 9.24943 47.6796 10.9654 46.1182 11.68C47.3505 11.9669 48.475 12.6786 49.4538 13.858C50.4326 15.0374 50.9395 16.5009 50.9395 18.3231C50.9395 20.4667 50.1063 22.2172 48.4371 23.5372C46.8057 24.8572 44.5946 25.5 41.8737 25.5H28.8255ZM35.351 10.0701H40.2102C41.8067 10.0701 42.8204 9.24943 42.8204 7.92654C42.8204 6.53478 41.8067 5.7112 40.2102 5.7112H35.351V10.0701ZM35.351 20.1424H40.6093C42.602 20.1424 43.7993 19.1783 43.7993 17.4995C43.7993 15.8208 42.5291 14.8222 40.6093 14.8222H35.351V20.1424Z" fill="white"/>
<path d="M52.4602 25.5V0.5H62.5748C66.7086 0.5 70.0792 1.67941 72.6894 4.00092C75.2996 6.32243 76.6047 9.32117 76.6047 13C76.6047 16.6788 75.2996 19.7149 72.6894 22.0364C70.0792 24.3579 66.7086 25.5 62.5748 25.5H52.4602ZM58.9887 19.8555H62.1058C67.0378 19.8555 69.8636 17.3905 69.8636 13C69.8636 8.6095 67.0349 6.14451 62.1058 6.14451H58.9887V19.8555Z" fill="white"/>
<path d="M94.3286 20.8541H77.0126V25.4828H94.3286V20.8541Z" fill="white"/>
</g>
<defs>
<clipPath id="clip0_1_650">
<rect width="94" height="25" fill="white" transform="translate(0.328613 0.5)"/>
</clipPath>
</defs>
</svg>
